<?xml version="1.0" encoding="UTF-8"?>
<svg id="Layer_2" data-name="Layer 2" xmlns="http://www.w3.org/2000/svg" viewBox="0 0 372.77 182.96">
  <g id="Vrstva_1" data-name="Vrstva 1">
    <g>
      <path d="m.4,182.96c-.13-30.35-.27-60.82-.4-91.34,43.17-.09,86.28-.19,129.21-.28C86.3,121.87,43.33,152.43.4,182.96"/>
      <path d="m128.8,0c.15,30.35.31,60.82.46,91.34-43.17.11-86.28.22-129.21.33C42.95,61.13,85.89,30.55,128.8,0"/>
      <path d="m122.67,182.96c-.13-30.35-.27-60.82-.4-91.34,43.17-.09,86.28-.19,129.21-.28-42.92,30.53-85.88,61.09-128.81,91.62"/>
      <path d="m251.07,0c.15,30.35.31,60.82.46,91.34-43.17.11-86.28.22-129.21.33C165.21,61.13,208.16,30.55,251.07,0"/>
      <path d="m244.02,182.64c-.15-30.35-.31-60.82-.46-91.34,43.17-.11,86.28-.22,129.21-.33-42.9,30.54-85.84,61.12-128.75,91.67"/>
    </g>
  </g>
</svg>