<?xml version="1.0" encoding="UTF-8"?>
<svg id="Layer_2" data-name="Layer 2" xmlns="http://www.w3.org/2000/svg" viewBox="0 0 204.13 28.38">
  <g id="Layer_1-2" data-name="Layer 1">
    <g>
      <path d="m0,27.9V9.4h5.33l.37,1.92c.92-1.29,2.74-2.52,5.4-2.52s4.55,1.29,5.62,3.26c.96-1.96,3.15-3.26,5.81-3.26,4.77,0,7.14,2.77,7.14,6.99v12.1h-5.7v-10.51c0-2.33-1.22-3.44-3.03-3.44-1.63,0-3.26.89-3.26,4.03v9.92h-5.7v-10.51c0-2.29-1.18-3.4-3-3.4-1.63,0-3.29.89-3.29,4v9.92H0Z" fill="#1d1d1b"/>
      <path d="m42.96,8.84c5.88,0,10.18,3.92,10.18,9.77s-4.29,9.73-10.18,9.73-10.21-3.89-10.21-9.73,4.29-9.77,10.21-9.77Zm0,14.39c2.63,0,4.44-1.85,4.44-4.66s-1.81-4.63-4.44-4.63-4.48,1.85-4.48,4.63,1.81,4.66,4.48,4.66Z" fill="#1d1d1b"/>
      <path d="m58.02,27.9v-13.77h-3.52v-4.74h3.52V3.66h5.7v5.74h3.52v4.74h-3.52v13.77h-5.7Z" fill="#1d1d1b"/>
      <path d="m69.34,3.26c0-1.81,1.44-3.22,3.26-3.22s3.22,1.41,3.22,3.22-1.44,3.26-3.22,3.26-3.26-1.44-3.26-3.26Zm.44,6.14h5.7v18.5h-5.7V9.4Z" fill="#1d1d1b"/>
      <path d="m88.98,8.84c5.88,0,10.18,3.92,10.18,9.77s-4.29,9.73-10.18,9.73-10.21-3.89-10.21-9.73,4.29-9.77,10.21-9.77Zm0,14.39c2.63,0,4.44-1.85,4.44-4.66s-1.81-4.63-4.44-4.63-4.48,1.85-4.48,4.63,1.81,4.66,4.48,4.66Z" fill="#1d1d1b"/>
      <path d="m102.45,27.9V9.4h5.37l.37,1.92c1.15-1.59,3.26-2.52,5.66-2.52,4.4,0,6.96,2.81,6.96,7.66v11.43h-5.7v-10.06c0-2.33-1.3-3.85-3.26-3.85-2.26,0-3.7,1.48-3.7,3.77v10.14h-5.7Z" fill="#1d1d1b"/>
      <path d="m124.87,27.9V0h5.7v27.9h-5.7Z" fill="#1d1d1b"/>
      <path d="m134.09,22.46c0-3.4,2.41-5.51,6.85-5.85l5.18-.41v-.3c0-1.81-1.11-2.78-3.15-2.78-2.4,0-3.7.93-3.7,2.59h-4.74c0-4.18,3.44-6.92,8.73-6.92s8.4,3,8.4,8.29v10.8h-5.03l-.37-2.44c-.59,1.7-3.03,2.92-5.81,2.92-3.92,0-6.36-2.29-6.36-5.92Zm12.06-1.48v-1l-2.89.26c-2.48.22-3.37.78-3.37,1.96,0,1.33.81,1.96,2.55,1.96,2.18,0,3.7-1.07,3.7-3.18Z" fill="#1d1d1b"/>
      <path d="m155.73,27.9V0h5.7v11.54c1.11-1.67,3.55-2.78,6.22-2.78,5.18,0,8.47,4.03,8.47,10.06s-3.66,9.55-8.92,9.55c-2.59,0-4.81-1.15-5.81-2.85l-.3,2.37h-5.37Zm10.25-4.74c2.7,0,4.4-1.89,4.4-4.63s-1.7-4.62-4.4-4.62-4.51,1.85-4.51,4.62,1.85,4.63,4.51,4.63Z" fill="#1d1d1b"/>
      <path d="m183.48,22.05c.07,1.29,1.04,2.07,2.78,2.07s2.59-.63,2.59-1.59c0-.56-.3-1.15-1.67-1.44l-3.4-.74c-3.4-.74-5.07-2.22-5.07-5.48,0-3.85,3.29-6.07,7.73-6.07s7.29,2.52,7.29,6.25h-5.4c0-1.26-.78-2.11-2.15-2.11-1.29,0-2.11.67-2.11,1.67,0,.85.7,1.33,2,1.63l3.44.74c3.04.67,4.7,2.07,4.7,5.03,0,3.96-3.37,6.36-8.18,6.36s-7.96-2.59-7.96-6.33h5.4Z" fill="#1d1d1b"/>
      <path d="m197.32,25.05c0-1.85,1.52-3.37,3.4-3.37s3.4,1.52,3.4,3.37-1.59,3.33-3.4,3.33-3.4-1.52-3.4-3.33Z" fill="#1d1d1b"/>
    </g>
  </g>
</svg>