<?xml version="1.0" encoding="UTF-8"?>
<svg id="Layer_2" data-name="Layer 2" xmlns="http://www.w3.org/2000/svg" viewBox="0 0 484.12 370.89">
  <defs>
    <style>
      .cls-1 {
        fill: none;
        stroke: #fff;
        stroke-linecap: round;
        stroke-miterlimit: 10;
        stroke-width: 5px;
      }
    </style>
  </defs>
  <g id="Layer_2-2" data-name="Layer 2">
    <path class="cls-1" d="m183.17,344.56l-143-4s-28-2-37-30C.17,268.56,8.17,120.56,8.17,120.56c0,0-1-32,33-48,6-2,70-1,70-1,0,0,17-2,23-13s-3-17-23-17-43,0-47,5-9,17,14,24c29,2,78-1,78-1,0,0,12,1,45-33S256.17,2.56,256.17,2.56h57.06s18.94-3,47.94,32c36,28,63,33,63,33,0,0,15,5,16,21,.88,14.11-7,20-18,19s-22-7-23-19,8-21,28-22,41,21,41,21c0,0,12,16,13,46s0,161.2,0,173.1c0,9.25-5.44,21.58-12.62,30.84-3.87,4.98-8.78,9.03-14.44,11.82-28,13.83-93.68,24.32-135.94,16.23"/>
    <circle class="cls-1" cx="284.17" cy="213.56" r="127.28"/>
  </g>
</svg>